<svg width="24" height="25" viewBox="0 0 24 25" fill="none" xmlns="http://www.w3.org/2000/svg">
<path d="M1 6C1 7.10949 1.06075 7.93281 1.19863 8.5532C1.33399 9.16225 1.53001 9.51274 1.75864 9.74136C1.98726 9.96999 2.33775 10.166 2.9468 10.3014C3.56719 10.4392 4.39051 10.5 5.5 10.5C6.60949 10.5 7.43281 10.4392 8.0532 10.3014C8.66225 10.166 9.01274 9.96999 9.24136 9.74136C9.46999 9.51274 9.66601 9.16225 9.80137 8.5532C9.93925 7.93281 10 7.10949 10 6C10 4.89051 9.93925 4.06719 9.80137 3.4468C9.66601 2.83775 9.46999 2.48726 9.24136 2.25864C9.01274 2.03001 8.66225 1.83399 8.0532 1.69863C7.43281 1.56075 6.60949 1.5 5.5 1.5C4.39051 1.5 3.56719 1.56075 2.9468 1.69863C2.33775 1.83399 1.98726 2.03001 1.75864 2.25864C1.53001 2.48726 1.33399 2.83775 1.19863 3.4468C1.06075 4.06719 1 4.89051 1 6Z" stroke="white" stroke-width="2" stroke-linecap="round" stroke-linejoin="round"/>
<path d="M1 19C1 20.1095 1.06075 20.9328 1.19863 21.5532C1.33399 22.1622 1.53001 22.5127 1.75864 22.7414C1.98726 22.97 2.33775 23.166 2.9468 23.3014C3.56719 23.4392 4.39051 23.5 5.5 23.5C6.60949 23.5 7.43281 23.4392 8.0532 23.3014C8.66225 23.166 9.01274 22.97 9.24136 22.7414C9.46999 22.5127 9.66601 22.1622 9.80137 21.5532C9.93925 20.9328 10 20.1095 10 19C10 17.8905 9.93925 17.0672 9.80137 16.4468C9.66601 15.8378 9.46999 15.4873 9.24136 15.2586C9.01274 15.03 8.66225 14.834 8.0532 14.6986C7.43281 14.5608 6.60949 14.5 5.5 14.5C4.39051 14.5 3.56719 14.5608 2.9468 14.6986C2.33775 14.834 1.98726 15.03 1.75864 15.2586C1.53001 15.4873 1.33399 15.8378 1.19863 16.4468C1.06075 17.0672 1 17.8905 1 19Z" stroke="white" stroke-width="2" stroke-linecap="round" stroke-linejoin="round"/>
<path d="M14 6C14 7.10949 14.0608 7.93281 14.1986 8.5532C14.334 9.16225 14.53 9.51274 14.7586 9.74136C14.9873 9.96999 15.3378 10.166 15.9468 10.3014C16.5672 10.4392 17.3905 10.5 18.5 10.5C19.6095 10.5 20.4328 10.4392 21.0532 10.3014C21.6622 10.166 22.0127 9.96999 22.2414 9.74136C22.47 9.51274 22.666 9.16225 22.8014 8.5532C22.9392 7.93281 23 7.10949 23 6C23 4.89051 22.9392 4.06719 22.8014 3.4468C22.666 2.83775 22.47 2.48726 22.2414 2.25864C22.0127 2.03001 21.6622 1.83399 21.0532 1.69863C20.4328 1.56075 19.6095 1.5 18.5 1.5C17.3905 1.5 16.5672 1.56075 15.9468 1.69863C15.3378 1.83399 14.9873 2.03001 14.7586 2.25864C14.53 2.48726 14.334 2.83775 14.1986 3.4468C14.0608 4.06719 14 4.89051 14 6Z" stroke="white" stroke-width="2" stroke-linecap="round" stroke-linejoin="round"/>
<path d="M14 19C14 20.1095 14.0608 20.9328 14.1986 21.5532C14.334 22.1622 14.53 22.5127 14.7586 22.7414C14.9873 22.97 15.3378 23.166 15.9468 23.3014C16.5672 23.4392 17.3905 23.5 18.5 23.5C19.6095 23.5 20.4328 23.4392 21.0532 23.3014C21.6622 23.166 22.0127 22.97 22.2414 22.7414C22.47 22.5127 22.666 22.1622 22.8014 21.5532C22.9392 20.9328 23 20.1095 23 19C23 17.8905 22.9392 17.0672 22.8014 16.4468C22.666 15.8378 22.47 15.4873 22.2414 15.2586C22.0127 15.03 21.6622 14.834 21.0532 14.6986C20.4328 14.5608 19.6095 14.5 18.5 14.5C17.3905 14.5 16.5672 14.5608 15.9468 14.6986C15.3378 14.834 14.9873 15.03 14.7586 15.2586C14.53 15.4873 14.334 15.8378 14.1986 16.4468C14.0608 17.0672 14 17.8905 14 19Z" stroke="white" stroke-width="2" stroke-linecap="round" stroke-linejoin="round"/>
</svg>
