<svg width="24" height="25" viewBox="0 0 24 25" fill="none" xmlns="http://www.w3.org/2000/svg">
<path d="M1 12.5C1 14.9477 1.13246 16.8463 1.46153 18.327C1.78807 19.7963 2.29478 20.7921 3.00136 21.4986C3.70794 22.2052 4.70365 22.7119 6.17298 23.0385C7.65366 23.3675 9.55232 23.5 12 23.5C14.4477 23.5 16.3463 23.3675 17.827 23.0385C19.2963 22.7119 20.2921 22.2052 20.9986 21.4986C21.7052 20.7921 22.2119 19.7963 22.5385 18.327C22.8675 16.8463 23 14.9477 23 12.5C23 10.0523 22.8675 8.15366 22.5385 6.67298C22.2119 5.20365 21.7052 4.20794 20.9986 3.50136C20.2921 2.79478 19.2963 2.28807 17.827 1.96153C16.3463 1.63246 14.4477 1.5 12 1.5C9.55232 1.5 7.65366 1.63246 6.17298 1.96153C4.70365 2.28807 3.70794 2.79478 3.00136 3.50136C2.29478 4.20794 1.78807 5.20365 1.46153 6.67298C1.13246 8.15366 1 10.0523 1 12.5Z" stroke="white" stroke-width="2" stroke-linecap="round" stroke-linejoin="round"/>
<path d="M16.8936 12.5C16.8936 11.7308 16.4368 11.2055 15.993 10.8379C15.5755 10.4921 14.9826 10.135 14.3194 9.73562C14.2982 9.72288 14.277 9.71009 14.2557 9.69725L12.6403 8.72418C12.6186 8.71106 12.5969 8.69799 12.5752 8.68496C11.9134 8.28619 11.3201 7.92868 10.8227 7.72369C10.2997 7.50815 9.59778 7.34042 8.91602 7.7511C8.25018 8.15219 8.05056 8.83908 7.97083 9.39935C7.89342 9.9434 7.89348 10.6518 7.89355 11.4545C7.89355 11.4785 7.89355 11.5027 7.89355 11.5269L7.89355 13.4731C7.89355 13.4973 7.89355 13.5215 7.89355 13.5455C7.89348 14.3482 7.89342 15.0566 7.97083 15.6006C8.05056 16.1609 8.25018 16.8478 8.91602 17.2489C9.59778 17.6596 10.2997 17.4918 10.8227 17.2763C11.32 17.0713 11.9134 16.7138 12.5752 16.315C12.5968 16.302 12.6185 16.2889 12.6403 16.2758L14.2557 15.3027C14.277 15.2899 14.2982 15.2771 14.3194 15.2644C14.9825 14.865 15.5755 14.5079 15.993 14.1621C16.4368 13.7945 16.8936 13.2692 16.8936 12.5Z" stroke="white" stroke-width="2" stroke-linecap="round" stroke-linejoin="round"/>
</svg>
