<svg width="24" height="25" viewBox="0 0 24 25" fill="none" xmlns="http://www.w3.org/2000/svg">
<path d="M1.71205 19.7165C0.731983 15.2378 0.979718 11.2505 1.19878 9.71903C1.22156 9.68083 1.26188 9.62096 1.3271 9.53762C1.47501 9.34861 1.70084 9.10214 2.00458 8.80278C2.60899 8.2071 3.44945 7.47258 4.4089 6.67899C6.32335 5.09548 8.64444 3.33178 10.3366 2.07188C11.3568 1.31232 12.7404 1.30911 13.7633 2.0639C15.4695 3.32291 17.8111 5.08864 19.7304 6.67389C20.6926 7.46861 21.53 8.20271 22.1245 8.79655C22.4236 9.09528 22.6406 9.3382 22.778 9.52132C22.8258 9.58503 22.8572 9.63255 22.8767 9.66498C22.9852 11.2948 23.2496 15.2791 22.3719 19.7371C22.1475 20.8774 21.7303 21.5875 21.1279 22.0714C20.5005 22.5755 19.5539 22.9301 18.0887 23.1131C17.3588 23.2043 16.6359 23.2793 15.9182 23.3382C13.272 23.5553 10.6918 23.5539 8.08393 23.3342C7.39282 23.276 6.69945 23.2024 6.00208 23.1135C4.54036 22.927 3.60663 22.5692 2.98443 22.0644C2.38303 21.5765 1.96249 20.861 1.71205 19.7165ZM1.18016 9.75341C1.18007 9.75344 1.18083 9.75163 1.1827 9.7479C1.18118 9.75152 1.18025 9.75338 1.18016 9.75341ZM22.9016 9.7113C22.9014 9.71126 22.9003 9.70897 22.8986 9.70457C22.9008 9.70914 22.9017 9.71135 22.9016 9.7113Z" stroke="white" stroke-width="2" stroke-linecap="round" stroke-linejoin="round"/>
</svg>
